# xmcd
#
# Track frame offsets: 
#        170
#        17342
#        34150
#        48595
#        67560
#        83082
#        102212
#        117772
#        135455
#        150612
#
# Disc length: 2202 seconds
#
# Revision: 4
# Processed by: cddbd v1.5.2PL0 Copyright (c) Steve Scherf et al.
# Submitted via: ExactAudioCopy v0.99pb5
#
DISCID=6b08980a
DTITLE=Heptones - Better days
DYEAR=1988
DGENRE=Reggae
TTITLE0=Suspicious mind
TTITLE1=Crystal blue persuasion
TTITLE2=Land of love
TTITLE3=Oh Jah
TTITLE4=Better days
TTITLE5=Jah bless the children
TTITLE6=Ready baby
TTITLE7=Everyday life
TTITLE8=Mister do over man song
TTITLE9=Key to her heart
EXTD=
EXTT0=
EXTT1=
EXTT2=
EXTT3=
EXTT4=
EXTT5=
EXTT6=
EXTT7=
EXTT8=
EXTT9=
PLAYORDER=
